#N canvas 254 163 1131 519 10;
#X obj 176 29 r aux;
#X obj 176 65 sel 1;
#X obj 176 98 delay 100;
#X obj 176 137 tgl 15 0 empty empty empty 17 7 0 10 -262144 -1 -1 0
1;
#X obj 198 160 s led 1;
#X obj 316 369 makenote, f 20;
#X msg 374 316 127;
#X obj 316 413 noteout;
#X obj 350 193 r randomRange;
#X obj 316 223 *;
#X obj 316 316 + 28;
#X obj 316 157 random 5;
#X obj 361 109 +;
#X obj 316 110 metro;
#X obj 327 387 bng 15 250 50 0 empty empty empty 17 7 0 10 -262144
-1 -1;
#X obj 328 336 bng 15 250 50 0 empty empty empty 17 7 0 10 -262144
-1 -1;
#X obj 33 138 bng 15 250 50 0 empty empty empty 17 7 0 10 -262144 -1
-1;
#N canvas 1048 130 780 289 knob4controls 1;
#X obj 79 16 inlet;
#X obj 79 158 bng 15 250 50 0 empty empty empty 17 7 0 10 -262144 -1
-1;
#X obj 336 18 r knob4;
#X floatatom 104 158 5 0 0 0 - - -;
#X obj 104 122 r tempoQ;
#X floatatom 271 161 5 0 0 0 - - -;
#X floatatom 428 165 5 0 0 0 - - -;
#X obj 271 125 r sustainQ;
#X obj 428 129 r rangeQ;
#X obj 243 163 bng 15 250 50 0 empty empty empty 17 7 0 10 -262144
-1 -1;
#X obj 406 165 bng 15 250 50 0 empty empty empty 17 7 0 10 -262144
-1 -1;
#N canvas 1237 473 544 461 knob4select 0;
#X obj 41 382 s screenLine4;
#X msg 41 197 4: moderate Q;
#X msg 55 227 4: less moderate Q;
#X msg 70 258 4: tolerable Q;
#X msg 99 287 4: high Q;
#X msg 112 314 4: extreme Q;
#X obj 41 124 sel 0 1 2 3 4 5;
#X obj 335 267 1;
#X obj 363 267 1;
#X obj 391 267 1;
#X obj 417 267 1;
#X obj 445 267 3;
#X obj 348 381 s Q;
#X obj 41 17 inlet;
#X obj 41 44 / 20;
#X obj 41 98 i;
#X obj 41 71 * 100;
#X text 100 34 Handle knob4 messages and apply a Q factor to the randomiser
, f 18;
#X text 105 342 Labeling for screenLine4, f 15;
#X text 405 345 Apply a 3x multiplier in extreme mode, f 15;
#X connect 1 0 0 0;
#X connect 2 0 0 0;
#X connect 3 0 0 0;
#X connect 4 0 0 0;
#X connect 5 0 0 0;
#X connect 6 0 1 0;
#X connect 6 0 7 0;
#X connect 6 1 2 0;
#X connect 6 2 3 0;
#X connect 6 2 8 0;
#X connect 6 3 9 0;
#X connect 6 4 4 0;
#X connect 6 4 10 0;
#X connect 6 5 5 0;
#X connect 6 5 11 0;
#X connect 7 0 12 0;
#X connect 8 0 12 0;
#X connect 9 0 12 0;
#X connect 10 0 12 0;
#X connect 11 0 12 0;
#X connect 13 0 14 0;
#X connect 14 0 16 0;
#X connect 15 0 6 0;
#X connect 16 0 15 0;
#X restore 601 95 pd knob4select;
#N canvas 1213 107 328 325 rangeQset 1;
#X obj 31 254 s rangeQ;
#X obj 31 43 metro;
#X obj 93 42 +;
#X obj 68 137 + 500;
#X obj 68 105 random 500;
#X obj 31 174 random 3;
#X obj 31 201 + 1;
#X obj 31 226 *;
#X obj 65 201 r Q;
#X obj 31 15 inlet;
#X text 146 24 Set some random value at a random tempo, f 20;
#X connect 1 0 2 0;
#X connect 1 0 4 0;
#X connect 1 0 5 0;
#X connect 2 0 1 1;
#X connect 3 0 2 1;
#X connect 4 0 3 0;
#X connect 5 0 6 0;
#X connect 6 0 7 0;
#X connect 7 0 0 0;
#X connect 8 0 7 1;
#X connect 9 0 1 0;
#X restore 429 96 pd rangeQset;
#N canvas 956 365 380 376 tempoQset 0;
#X obj 40 16 inlet;
#X obj 40 115 metro;
#X obj 108 113 +;
#X obj 108 49 + 0.25;
#X obj 108 81 * 1000;
#X obj 40 279 / 100;
#X obj 40 216 random 100;
#X obj 40 301 s tempoQ;
#X obj 108 17 inlet;
#X obj 105 249 + 900;
#X obj 105 270 / 1000;
#X floatatom 218 239 5 0 0 0 - - -;
#X connect 0 0 1 0;
#X connect 1 0 2 0;
#X connect 1 0 6 0;
#X connect 2 0 1 1;
#X connect 3 0 4 0;
#X connect 4 0 2 1;
#X connect 5 0 7 0;
#X connect 6 0 9 0;
#X connect 8 0 3 0;
#X connect 9 0 10 0;
#X connect 10 0 11 0;
#X connect 10 0 7 0;
#X restore 79 93 pd tempoQset;
#N canvas 1164 193 637 549 sustainQset 0;
#X obj 28 19 inlet;
#X obj 94 20 inlet;
#X obj 46 349 s sustainQ;
#X obj 66 134 metro;
#X obj 128 133 +;
#X floatatom 128 165 5 0 0 0 - - -;
#X obj 70 240 + 500;
#X obj 70 208 random 500;
#X obj 46 286 random 100;
#X obj 46 307 + 900;
#X obj 46 328 / 1000;
#X connect 0 0 3 0;
#X connect 1 0 4 1;
#X connect 3 0 4 0;
#X connect 3 0 7 0;
#X connect 3 0 8 0;
#X connect 4 0 3 1;
#X connect 4 0 5 0;
#X connect 6 0 4 1;
#X connect 7 0 6 0;
#X connect 8 0 9 0;
#X connect 9 0 10 0;
#X connect 10 0 2 0;
#X restore 255 95 pd sustainQset;
#X floatatom 605 166 5 0 0 0 - - -;
#X obj 583 166 bng 15 250 50 0 empty empty empty 17 7 0 10 -262144
-1 -1;
#X obj 605 130 r Q;
#X connect 0 0 13 0;
#X connect 0 0 14 0;
#X connect 2 0 11 0;
#X connect 2 0 12 0;
#X connect 2 0 13 1;
#X connect 2 0 14 1;
#X connect 4 0 3 0;
#X connect 4 0 1 0;
#X connect 7 0 5 0;
#X connect 7 0 9 0;
#X connect 8 0 6 0;
#X connect 8 0 10 0;
#X connect 17 0 15 0;
#X connect 17 0 16 0;
#X restore 34 207 pd knob4controls;
#X obj 350 252 +;
#X obj 381 220 r rangeQ;
#N canvas 617 390 402 593 knob3controls 1;
#X obj 29 475 s screenLine3;
#X obj 30 32 r knob3;
#X obj 29 79 * 100;
#X obj 30 57 / 20;
#X obj 29 109 i;
#X obj 178 476 s randomRange;
#X msg 29 444 3: Range \$1;
#X obj 29 136 sel 0 1 2 3 4 5;
#X msg 61 219 5;
#X msg 77 242 7;
#X msg 93 264 10;
#X msg 45 198 3;
#X msg 30 173 0;
#X obj 178 321 0;
#X obj 206 321 3;
#X obj 234 321 5;
#X obj 260 321 7;
#X obj 289 321 10;
#X connect 1 0 3 0;
#X connect 2 0 4 0;
#X connect 3 0 2 0;
#X connect 4 0 7 0;
#X connect 6 0 0 0;
#X connect 7 0 13 0;
#X connect 7 0 12 0;
#X connect 7 1 14 0;
#X connect 7 1 11 0;
#X connect 7 2 15 0;
#X connect 7 2 8 0;
#X connect 7 3 16 0;
#X connect 7 3 9 0;
#X connect 7 4 17 0;
#X connect 7 4 10 0;
#X connect 8 0 6 0;
#X connect 9 0 6 0;
#X connect 10 0 6 0;
#X connect 11 0 6 0;
#X connect 12 0 6 0;
#X connect 13 0 5 0;
#X connect 14 0 5 0;
#X connect 15 0 5 0;
#X connect 16 0 5 0;
#X connect 17 0 5 0;
#X restore 32 79 pd knob3controls;
#X obj 33 105 r randomRange;
#X floatatom 62 139 5 0 0 0 - - -;
#N canvas 1338 615 292 429 knob2controls 1;
#X obj 121 263 s screenLine2;
#X obj 120 42 r knob2;
#X obj 121 193 i;
#X obj 120 77 + 0.2;
#X obj 120 124 * 2000;
#X msg 121 232 2: Sustain \$1ms;
#X text 118 8 sustain;
#X obj 9 123 r sustainQ;
#X obj 121 164 *;
#X obj 15 199 s noteSustain;
#X obj 49 39 loadbang;
#X connect 1 0 3 0;
#X connect 2 0 5 0;
#X connect 3 0 4 0;
#X connect 4 0 8 1;
#X connect 5 0 0 0;
#X connect 7 0 8 0;
#X connect 8 0 2 0;
#X connect 8 0 9 0;
#X connect 10 0 3 0;
#X restore 33 52 pd knob2controls;
#X obj 433 310 r noteSustain;
#X obj 316 29 r auxToggle;
#X obj 176 184 s auxToggle;
#X obj 34 173 r auxToggle;
#X obj 374 283 r auxToggle;
#X text 310 349 note velocity duration;
#X obj 376 59 r tempoDrive;
#N canvas 91 495 373 467 knob1controls 1;
#X obj 105 341 s screenLine1;
#X obj 66 61 r knob1;
#X obj 105 279 i;
#X floatatom 126 138 5 0 0 0 - - -;
#X obj 66 80 * 1000;
#X text 64 28 Tempo, f 8;
#X msg 105 310 1: Tempo \$1ms;
#X obj 51 248 *;
#X obj 51 176 r tempoQ;
#X obj 65 100 + 500;
#X obj 12 341 s tempoDrive;
#X obj 154 58 metro;
#X connect 1 0 4 0;
#X connect 2 0 6 0;
#X connect 4 0 9 0;
#X connect 6 0 0 0;
#X connect 7 0 2 0;
#X connect 7 0 10 0;
#X connect 8 0 7 0;
#X connect 9 0 3 0;
#X connect 9 0 7 1;
#X connect 11 0 4 0;
#X restore 34 26 pd knob1controls;
#X obj 532 30 r randomRange;
#X obj 739 30 r Q;
#X obj 642 82 r noteSustain;
#X obj 589 57 r tempoDrive;
#X obj 873 112 r tempoQ;
#X obj 826 83 r sustainQ;
#X obj 781 55 r rangeQ;
#X floatatom 739 140 5 0 0 0 - - -;
#X floatatom 781 140 5 0 0 0 - - -;
#X floatatom 826 140 5 0 0 0 - - -;
#X floatatom 873 140 5 0 0 0 - - -;
#X floatatom 642 138 5 0 0 0 - - -;
#X floatatom 589 139 5 0 0 0 - - -;
#X floatatom 532 139 5 0 0 0 - - -;
#X text 842 426 Midi Randomiser v0.1 06/2020;
#X text 527 164 Values in the pipework;
#X text 172 256 Handle the aux toggle and LED, f 17;
#X text 28 259 Set up the knobs and displays, f 20;
#X obj 606 120 bng 15 250 50 0 empty empty empty 17 7 0 10 -262144
-1 -1;
#X obj 660 118 bng 15 250 50 0 empty empty empty 17 7 0 10 -262144
-1 -1;
#X connect 0 0 1 0;
#X connect 1 0 2 0;
#X connect 2 0 3 0;
#X connect 3 0 4 0;
#X connect 3 0 26 0;
#X connect 5 0 7 0;
#X connect 5 0 14 0;
#X connect 5 1 7 1;
#X connect 6 0 5 1;
#X connect 8 0 9 1;
#X connect 8 0 18 0;
#X connect 9 0 10 0;
#X connect 10 0 5 0;
#X connect 10 0 15 0;
#X connect 11 0 9 0;
#X connect 12 0 13 1;
#X connect 13 0 11 0;
#X connect 13 0 12 0;
#X connect 18 0 10 0;
#X connect 19 0 18 1;
#X connect 21 0 16 0;
#X connect 21 0 22 0;
#X connect 24 0 5 2;
#X connect 25 0 13 0;
#X connect 27 0 17 0;
#X connect 28 0 6 0;
#X connect 30 0 12 1;
#X connect 32 0 45 0;
#X connect 33 0 39 0;
#X connect 34 0 43 0;
#X connect 34 0 51 0;
#X connect 35 0 44 0;
#X connect 35 0 50 0;
#X connect 36 0 42 0;
#X connect 37 0 41 0;
#X connect 38 0 40 0;
